# xmcd
#
# Track frame offsets: 
#        150
#        18101
#        32485
#        50126
#        67212
#        87596
#        102187
#        119474
#        136801
#        155202
#        170072
#
# Disc length: 2590 seconds
#
# Revision: 0
# Processed by: cddbd v1.5.2PL0 Copyright (c) Steve Scherf et al.
# Submitted via: ExactAudioCopy v0.95b4
#
DISCID=9b0a1c0b
DTITLE=Alan Tyler And The Lost Sons Of Littlefield - Lonesome Cowboys
DYEAR=2008
DGENRE=Country
TTITLE0=Rambling Girl
TTITLE1=The Man That I Am
TTITLE2=Something That You Haven't Told Me
TTITLE3=Fool Around
TTITLE4=Time To Pay
TTITLE5=I'm A Gambler
TTITLE6=The Fields Beneath
TTITLE7=When You Get Back From New York City
TTITLE8=Cowboys Don't Cry
TTITLE9=Feel Better
TTITLE10=O'er The Hill And Far Away
EXTD=
EXTT0=
EXTT1=
EXTT2=
EXTT3=
EXTT4=
EXTT5=
EXTT6=
EXTT7=
EXTT8=
EXTT9=
EXTT10=
PLAYORDER=
